%
M48
M72
T01C0.0236
T02C0.0276
T03C0.0315
T04C0.0320
T05C0.0354
T06C0.0400
T07C0.0787
T08C0.1300
%
T01
X7457Y2703
X7457Y4578
X5457Y4891
X4957Y7203
X1895Y7078
X8332Y9328
X10457Y8203
X10457Y6703
X15457Y6203
X18457Y7703
X18457Y8703
X19457Y9203
X20520Y7953
X23457Y9953
X24457Y9953
X25457Y9953
X26457Y9953
X30457Y7703
X31457Y7203
X36791Y5832
X32395Y3453
X30645Y3828
X26457Y2703
X25457Y2703
X24457Y2703
X25957Y5703
X25957Y6703
X14707Y2078
X1582Y11391
X11020Y17266
X12457Y16203
X14457Y15203
X17332Y17328
X14457Y20703
X12957Y20703
X13645Y22203
X17457Y21703
X19457Y22828
X20520Y22016
X27082Y22141
X30145Y19641
X28457Y17453
X27457Y17453
X25457Y17391
X29770Y15078
X34957Y19828
X8457Y21203
X6520Y21953
X5395Y23453
X6582Y19828
X4270Y19641
X3457Y19078
X1457Y17828
T02
X38082Y17363
X39082Y16823
X38082Y16283
X39082Y15743
X38082Y15203
X39082Y14663
X38082Y14123
X38082Y13043
T03
X39082Y13583
X38457Y22703
X24707Y23453
X23707Y23453
X22457Y23453
X21457Y23453
X20457Y23453
X19457Y23453
X18457Y23453
X17457Y23453
X16457Y23453
X15457Y23453
T04
X22507Y21703
X24407Y21703
X21457Y17203
X21457Y14203
X29457Y7703
X30457Y4703
X29457Y2703
X35457Y3578
X36457Y3578
X38707Y7203
X37332Y7828
X36332Y7828
X38707Y8203
X35957Y10703
X35957Y11703
X33957Y11703
X33957Y10703
X33457Y12703
X34957Y13203
X33457Y13703
X34957Y14203
X33457Y14703
X33457Y15703
X34957Y15703
X36457Y15703
X36457Y14703
X36457Y13703
X36457Y12703
X36457Y16703
X34957Y16703
X33457Y16703
X33457Y17703
X34957Y17703
X36457Y17703
X36457Y18703
X34957Y18703
X33457Y18703
X33457Y19703
X36457Y19703
X39457Y22703
T05
X3457Y2453
X4457Y2453
X4457Y3453
X3457Y3453
X3457Y4453
X4457Y4453
X4457Y5453
X3457Y5453
X3457Y6453
X4457Y6453
X1707Y19578
X3457Y23453
X4457Y23453
X6457Y23453
X7457Y23453
X8457Y23453
X9457Y23453
X10457Y23453
X12457Y23453
X13457Y23453
X26457Y23453
X27457Y23453
X28457Y23453
X30457Y23453
X31457Y23453
X39458Y5453
X39458Y4453
X34457Y3453
X33457Y3453
X35457Y1453
X36457Y1453
T06
X14347Y3673
X12567Y3673
X11347Y3673
X9567Y3673
X8347Y3673
X6567Y3673
X6567Y6233
X8347Y6233
X9567Y6233
X11347Y6233
X12567Y6233
X14347Y6233
X34038Y20813
X36598Y20813
X36598Y22593
X34038Y22593
T07
X31796Y21561
X31796Y9396
X2040Y9396
X2040Y21561
T08
X38582Y20133
X38582Y10273
M30
